<?xml version="1.0" encoding="iso-8859-1"?>
<!-- Uploaded to: SVG Repo, www.svgrepo.com, Generator: SVG Repo Mixer Tools -->
<svg height="800px" width="800px" version="1.1" id="Layer_1" xmlns="http://www.w3.org/2000/svg" xmlns:xlink="http://www.w3.org/1999/xlink" 
	 viewBox="0 0 512.035 512.035" xml:space="preserve">
<g transform="translate(1 1)">
	<path style="fill:#54C9FD;" d="M233.701,45.097L94.608,184.191L7.568,331.817l147.627-87.04l139.093-139.093
		C266.128,93.737,245.648,73.257,233.701,45.097"/>
	<path style="fill:#FCC309;" d="M84.368,451.284c0-56.32,53.76-102.4,102.4-102.4s102.4,46.08,102.4,102.4H84.368z M318.181,451.284
		c0-84.48-58.88-153.6-131.413-153.6s-131.413,69.12-131.413,153.6H33.168v51.2h307.2v-51.2H318.181z"/>
	<g>
		<path style="fill:#FFFFFF;" d="M34.021,451.284h22.187c0-84.48,60.587-153.6,134.827-153.6
			C103.995,297.684,34.021,366.804,34.021,451.284"/>
		<path style="fill:#FFFFFF;" d="M7.568,502.484h26.453v-51.2H7.568V502.484z"/>
	</g>
	<g>
		<path style="fill:#FD9808;" d="M191.035,297.684c74.24,0,123.733,69.12,123.733,153.6h22.187
			C336.955,366.804,278.075,297.684,191.035,297.684"/>
		<path style="fill:#FD9808;" d="M336.955,502.484h26.453v-51.2h-26.453V502.484z"/>
		<path style="fill:#FD9808;" d="M400.101,502.484h102.4V7.551h-102.4V502.484z"/>
	</g>
	<path style="fill:#FFDD09;" d="M400.101,502.484h76.8V7.551h-76.8V502.484z"/>
	<g>
		<path style="fill:#33A9F8;" d="M323.301,75.817l-29.013,29.867c-28.16-11.947-48.64-32.427-60.587-60.587l29.867-29.013
			c11.093-11.093,31.573-11.093,42.667,0l17.067,17.067C334.395,44.244,334.395,64.724,323.301,75.817"/>
		<path style="fill:#33A9F8;" d="M86.928,284.884l-79.36,46.933l47.787-80.213L86.928,284.884z"/>
	</g>
	<path d="M365.968,511.017H7.568c-5.12,0-8.533-3.413-8.533-8.533v-51.2c0-5.12,3.413-8.533,8.533-8.533h17.067
		c4.267-85.333,75.093-153.6,162.133-153.6c86.187,0,157.867,68.267,162.133,153.6h17.067c5.12,0,8.533,3.413,8.533,8.533v51.2
		C374.501,507.604,371.088,511.017,365.968,511.017z M16.101,493.951h341.333v-34.133h-17.067c-5.12,0-8.533-3.413-8.533-8.533
		c0-80.213-64.853-145.067-145.067-145.067S41.701,371.071,41.701,451.284c0,5.12-3.413,8.533-8.533,8.533H16.101V493.951z
		 M348.901,451.284L348.901,451.284L348.901,451.284z M289.168,459.817h-204.8c-5.12,0-8.533-3.413-8.533-8.533
		c0-61.44,49.493-110.933,110.933-110.933s110.933,49.493,110.933,110.933C297.701,456.404,294.288,459.817,289.168,459.817z
		 M92.901,442.751h187.733c-4.267-47.787-44.373-85.333-93.867-85.333S98.021,394.964,92.901,442.751z"/>
	<path d="M50.235,511.017c-5.12,0-8.533-3.413-8.533-8.533v-17.067c0-5.12,3.413-8.533,8.533-8.533s8.533,3.413,8.533,8.533v17.067
		C58.768,507.604,55.355,511.017,50.235,511.017z"/>
	<path d="M118.501,511.017c-5.12,0-8.533-3.413-8.533-8.533v-17.067c0-5.12,3.413-8.533,8.533-8.533s8.533,3.413,8.533,8.533v17.067
		C127.035,507.604,123.621,511.017,118.501,511.017z"/>
	<path d="M186.768,511.017c-5.12,0-8.533-3.413-8.533-8.533v-17.067c0-5.12,3.413-8.533,8.533-8.533c5.12,0,8.533,3.413,8.533,8.533
		v17.067C195.301,507.604,191.888,511.017,186.768,511.017z"/>
	<path d="M186.768,323.284c-5.12,0-8.533-3.413-8.533-8.533v-17.067c0-5.12,3.413-8.533,8.533-8.533c5.12,0,8.533,3.413,8.533,8.533
		v17.067C195.301,319.871,191.888,323.284,186.768,323.284z"/>
	<path d="M272.101,357.417c-2.56,0-4.267-0.853-5.973-2.56c-3.413-3.413-3.413-8.533,0-11.947l14.507-14.507
		c3.413-3.413,8.533-3.413,11.947,0c3.413,3.413,3.413,8.533,0,11.947l-14.507,14.507
		C276.368,356.564,274.661,357.417,272.101,357.417z"/>
	<path d="M101.435,357.417c-2.56,0-4.267-0.853-5.973-2.56l-14.507-14.507c-3.413-3.413-3.413-8.533,0-11.947
		c3.413-3.413,8.533-3.413,11.947,0l14.507,14.507c3.413,3.413,3.413,8.533,0,11.947
		C105.701,356.564,103.995,357.417,101.435,357.417z"/>
	<path d="M255.035,511.017c-5.12,0-8.533-3.413-8.533-8.533v-17.067c0-5.12,3.413-8.533,8.533-8.533s8.533,3.413,8.533,8.533v17.067
		C263.568,507.604,260.155,511.017,255.035,511.017z"/>
	<path d="M323.301,511.017c-5.12,0-8.533-3.413-8.533-8.533v-17.067c0-5.12,3.413-8.533,8.533-8.533c5.12,0,8.533,3.413,8.533,8.533
		v17.067C331.835,507.604,328.421,511.017,323.301,511.017z"/>
	<path d="M502.501,511.017h-102.4c-5.12,0-8.533-3.413-8.533-8.533V7.551c0-5.12,3.413-8.533,8.533-8.533h102.4
		c5.12,0,8.533,3.413,8.533,8.533v494.933C511.035,507.604,507.621,511.017,502.501,511.017z M408.635,493.951h85.333V16.084
		h-85.333V493.951z"/>
	<path d="M434.235,92.884h-34.133c-5.12,0-8.533-3.413-8.533-8.533s3.413-8.533,8.533-8.533h34.133c5.12,0,8.533,3.413,8.533,8.533
		S439.355,92.884,434.235,92.884z"/>
	<path d="M451.301,135.551h-51.2c-5.12,0-8.533-3.413-8.533-8.533s3.413-8.533,8.533-8.533h51.2c5.12,0,8.533,3.413,8.533,8.533
		S456.421,135.551,451.301,135.551z"/>
	<path d="M434.235,178.217h-34.133c-5.12,0-8.533-3.413-8.533-8.533c0-5.12,3.413-8.533,8.533-8.533h34.133
		c5.12,0,8.533,3.413,8.533,8.533C442.768,174.804,439.355,178.217,434.235,178.217z"/>
	<path d="M451.301,220.884h-51.2c-5.12,0-8.533-3.413-8.533-8.533s3.413-8.533,8.533-8.533h51.2c5.12,0,8.533,3.413,8.533,8.533
		S456.421,220.884,451.301,220.884z"/>
	<path d="M434.235,263.551h-34.133c-5.12,0-8.533-3.413-8.533-8.533c0-5.12,3.413-8.533,8.533-8.533h34.133
		c5.12,0,8.533,3.413,8.533,8.533C442.768,260.137,439.355,263.551,434.235,263.551z"/>
	<path d="M451.301,306.217h-51.2c-5.12,0-8.533-3.413-8.533-8.533c0-5.12,3.413-8.533,8.533-8.533h51.2
		c5.12,0,8.533,3.413,8.533,8.533C459.835,302.804,456.421,306.217,451.301,306.217z"/>
	<path d="M434.235,348.884h-34.133c-5.12,0-8.533-3.413-8.533-8.533c0-5.12,3.413-8.533,8.533-8.533h34.133
		c5.12,0,8.533,3.413,8.533,8.533C442.768,345.471,439.355,348.884,434.235,348.884z"/>
	<path d="M451.301,391.551h-51.2c-5.12,0-8.533-3.413-8.533-8.533s3.413-8.533,8.533-8.533h51.2c5.12,0,8.533,3.413,8.533,8.533
		S456.421,391.551,451.301,391.551z"/>
	<path d="M451.301,476.884h-51.2c-5.12,0-8.533-3.413-8.533-8.533s3.413-8.533,8.533-8.533h51.2c5.12,0,8.533,3.413,8.533,8.533
		S456.421,476.884,451.301,476.884z"/>
	<path d="M434.235,434.217h-34.133c-5.12,0-8.533-3.413-8.533-8.533c0-5.12,3.413-8.533,8.533-8.533h34.133
		c5.12,0,8.533,3.413,8.533,8.533C442.768,430.804,439.355,434.217,434.235,434.217z"/>
	<path d="M155.195,253.311c-0.853,0-0.853,0-1.707,0c-2.56-0.853-5.12-2.56-5.973-4.267l-6.827-14.507
		c-10.24-19.627-27.307-34.987-48.64-41.813c-2.56-0.853-5.12-3.413-5.973-5.973c-0.853-2.56,0-5.973,2.56-7.68L227.728,39.124
		c1.707-1.707,5.12-2.56,7.68-2.56c2.56,0.853,5.12,2.56,5.973,5.12c11.093,25.6,29.867,44.373,55.467,55.467
		c2.56,0.853,4.267,3.413,5.12,5.973c0.853,2.56,0,5.973-2.56,7.68l-138.24,139.947
		C159.461,252.457,157.755,253.311,155.195,253.311z M109.968,181.631c19.627,9.387,35.84,25.6,46.08,45.227l1.707,3.413
		l122.027-122.027c-20.48-11.093-36.693-27.307-48.64-48.64L109.968,181.631z"/>
	<path d="M7.568,340.351c-2.56,0-4.267-0.853-5.973-2.56c-2.56-2.56-3.413-6.827-1.707-10.24l87.893-147.627
		c1.707-3.413,5.973-5.12,10.24-3.413c25.6,8.533,46.08,26.453,58.027,50.347l6.827,14.507c1.707,4.267,0.853,8.533-3.413,11.093
		l-147.627,87.04C10.981,340.351,9.275,340.351,7.568,340.351z M98.875,194.431L31.461,307.924l112.64-66.56l-3.413-6.827
		C131.301,216.617,116.795,202.964,98.875,194.431z"/>
	<path d="M7.568,340.351c-2.56,0-4.267-0.853-5.973-2.56c-2.56-2.56-3.413-6.827-1.707-10.24l47.787-80.213
		c1.707-2.56,3.413-3.413,5.973-4.267c2.56,0,5.12,0.853,6.827,2.56l31.573,33.28c1.707,1.707,2.56,4.267,2.56,6.827
		c0,2.56-1.707,5.12-4.267,5.973l-79.36,46.933C10.981,340.351,9.275,340.351,7.568,340.351z M57.061,265.257l-24.747,41.813
		l41.813-24.747L57.061,265.257z"/>
	<path d="M294.288,114.217c-0.853,0-2.56,0-3.413-0.853c-29.867-12.8-52.053-34.987-64.853-64.853
		c-1.707-3.413-0.853-6.827,1.707-9.387l29.867-29.013c14.507-14.507,40.107-14.507,54.613,0l17.067,17.067
		c14.507,14.507,14.507,40.107,0,54.613l-29.013,29.867C298.555,113.364,295.995,114.217,294.288,114.217z M243.941,47.657
		c10.24,21.333,26.453,37.547,47.787,47.787l25.6-25.6l0,0c7.68-7.68,7.68-22.187,0-30.72l-17.067-17.067
		c-7.68-7.68-22.187-7.68-30.72,0L243.941,47.657z"/>
	<path style="fill:#020101;" d="M476.901,50.217c0,9.387-7.68,17.067-17.067,17.067s-17.067-7.68-17.067-17.067
		s7.68-17.067,17.067-17.067S476.901,40.831,476.901,50.217"/>
</g>
</svg>