<?xml version="1.0" encoding="UTF-8" standalone="no"?>
<!-- Uploaded to: SVG Repo, www.svgrepo.com, Generator: SVG Repo Mixer Tools -->

<svg
   version="1.1"
   id="_x32_"
   width="2677.1768"
   height="936.12903"
   viewBox="0 0 1713.3931 599.12258"
   xml:space="preserve"
   sodipodi:docname="house.svg"
   inkscape:version="1.1.2 (0a00cf5339, 2022-02-04)"
   xmlns:inkscape="http://www.inkscape.org/namespaces/inkscape"
   xmlns:sodipodi="http://sodipodi.sourceforge.net/DTD/sodipodi-0.dtd"
   xmlns="http://www.w3.org/2000/svg"
   xmlns:svg="http://www.w3.org/2000/svg"><defs
   id="defs11" /><sodipodi:namedview
   id="namedview9"
   pagecolor="#ffffff"
   bordercolor="#666666"
   borderopacity="1.0"
   inkscape:pageshadow="2"
   inkscape:pageopacity="0.0"
   inkscape:pagecheckerboard="0"
   showgrid="false"
   fit-margin-left="1"
   fit-margin-top="1"
   fit-margin-bottom="1"
   fit-margin-right="1"
   inkscape:zoom="0.26202359"
   inkscape:cx="948.38788"
   inkscape:cy="414.08485"
   inkscape:window-width="1846"
   inkscape:window-height="1016"
   inkscape:window-x="74"
   inkscape:window-y="27"
   inkscape:window-maximized="1"
   inkscape:current-layer="g6" />
<style
   type="text/css"
   id="style2">
<![CDATA[
	.st0{fill:#000000;}
]]>
</style>
<g
   id="g6"
   style="fill:none;stroke:#000000;stroke-width:2.56;stroke-miterlimit:4;stroke-dasharray:none"
   transform="translate(2.4501601,139.82759)">
	<path
   class="st0"
   d="M 256,54.625 217.937,92.656 0,310.609 38.063,348.672 79.876,306.844 v 150.531 h 352.25 V 306.844 L 473.939,348.672 512,310.609 C 424.09274,223.54023 324.40765,123.45313 256,54.625 Z m -10.422,342.094 h -54.484 v -54.5 h 54.484 z m 0,-75.656 h -54.484 v -54.5 h 54.484 z m 75.328,75.656 h -54.484 v -54.5 h 54.484 z m 0,-75.656 h -54.484 v -54.5 h 54.484 z"
   id="path4"
   style="fill:none;stroke:#000000;stroke-width:6.39999996;stroke-miterlimit:4;stroke-dasharray:none"
   sodipodi:nodetypes="ccccccccccccccccccccccccccccccc" />
<path
   class="st0"
   d="m 838.08846,-137.375 -38.063,38.031 -217.937,217.953 38.063,38.063 41.813,-41.828 V 457.375 H 1014.2145 V 114.844 l 41.813,41.828 38.061,-38.063 C 1006.1812,31.54023 906.49611,-68.54687 838.08846,-137.375 Z m -10.422,534.094 h -54.484 v -54.5 h 54.484 z m 0,-75.656 h -54.484 v -54.5 h 54.484 z m 75.328,75.656 h -54.484 v -54.5 h 54.484 z m 0,-75.656 h -54.484 v -54.5 h 54.484 z"
   id="path4-6"
   style="fill:none;stroke:#000000;stroke-width:6.39999996;stroke-miterlimit:4;stroke-dasharray:none"
   sodipodi:nodetypes="ccccccccccccccccccccccccccccccc" /><path
   class="st0"
   d="m 1452.4885,144.225 -38.063,38.031 -217.937,217.953 38.063,38.063 41.813,-41.828 v 60.931 h 352.25 v -60.931 l 41.813,41.828 38.061,-38.063 c -87.9073,-87.06877 -187.5924,-187.15587 -256,-255.984 z m -10.422,252.494 h -54.484 v -54.5 h 54.484 z m 0,-75.656 h -54.484 v -54.5 h 54.484 z m 75.328,75.656 h -54.484 v -54.5 h 54.484 z m 0,-75.656 h -54.484 v -54.5 h 54.484 z"
   id="path4-6-7"
   style="fill:none;stroke:#000000;stroke-width:6.39999996;stroke-miterlimit:4;stroke-dasharray:none"
   sodipodi:nodetypes="ccccccccccccccccccccccccccccccc" /></g>
</svg>
