<?xml version="1.0" encoding="utf-8"?><!-- Uploaded to: SVG Repo, www.svgrepo.com, Generator: SVG Repo Mixer Tools -->
<svg width="800px" height="800px" viewBox="0 0 512 512" xmlns="http://www.w3.org/2000/svg" xmlns:xlink="http://www.w3.org/1999/xlink" aria-hidden="true" role="img" class="iconify iconify--fxemoji" preserveAspectRatio="xMidYMid meet"><path fill="#C4AC8C" d="M103.387 468.392H76.559V55.137l26.828-19.33z"></path><path fill="#F7DFBC" d="M460.91 7.849v-.794H123.847v.794L94.155 55.137V451.61c0 1.542.193 3.037.525 4.478l-.104.017l-4.603 15.38l-44.525 31.908h368.174c26.117 0 47.288-21.172 47.288-47.288v-353.68c26.117 0 47.288-21.172 47.288-47.288S487.026 7.849 460.91 7.849z"></path><path fill="#E0C7AD" d="M459.726 101.641H124.265l-30.11-20.002v43.723h365.571z"></path><path fill="#C4AC8C" d="M123.847 102.425c-26.117 0-47.288-21.172-47.288-47.288S97.731 7.849 123.847 7.849s47.288 21.172 47.288 47.288s-21.171 47.288-47.288 47.288zm-29.271 353.68c0-26.117-21.172-47.288-47.288-47.288S0 429.988 0 456.105s21.172 47.288 47.288 47.288s47.288-21.171 47.288-47.288z"></path><path fill="#60554A" d="M413.686 427.689H155.588a8.281 8.281 0 1 1 0-16.562h258.097a8.282 8.282 0 0 1 .001 16.562zm-7.915-58.331a8.282 8.282 0 0 0-8.281-8.281H155.588a8.281 8.281 0 1 0 0 16.562h241.901a8.281 8.281 0 0 0 8.282-8.281zm-97.229-50.049a8.282 8.282 0 0 0-8.281-8.281H155.588a8.281 8.281 0 1 0 0 16.562H300.26a8.282 8.282 0 0 0 8.282-8.281zm113.425-50.05a8.282 8.282 0 0 0-8.281-8.281H155.588a8.281 8.281 0 1 0 0 16.562h258.097a8.282 8.282 0 0 0 8.282-8.281zm0-50.05a8.281 8.281 0 0 0-8.281-8.281H155.588a8.281 8.281 0 1 0 0 16.562h258.097a8.28 8.28 0 0 0 8.282-8.281zm0-50.049a8.281 8.281 0 0 0-8.281-8.281H155.588a8.281 8.281 0 1 0 0 16.562h258.097a8.282 8.282 0 0 0 8.282-8.281zM143.177 55.137c0-10.676-8.654-19.33-19.33-19.33s-19.33 8.654-19.33 19.33s8.654 19.33 19.33 19.33s19.33-8.654 19.33-19.33zM66.618 456.105c0-10.676-8.654-19.33-19.33-19.33s-19.33 8.654-19.33 19.33c0 10.676 8.654 19.33 19.33 19.33s19.33-8.654 19.33-19.33z"></path></svg>