<?xml version="1.0" encoding="iso-8859-1"?>
<!-- Uploaded to: SVG Repo, www.svgrepo.com, Generator: SVG Repo Mixer Tools -->
<svg height="800px" width="800px" version="1.1" id="Layer_1" xmlns="http://www.w3.org/2000/svg" xmlns:xlink="http://www.w3.org/1999/xlink" 
	 viewBox="0 0 295.996 295.996" xml:space="preserve">
<g>
	<path style="fill:#FFCE00;" d="M270.996,123.998c0-11.334-1.363-22.348-3.907-32.9c-7.269-15.152-17.35-28.708-29.558-39.996
		c-22.391-13.376-48.766-20.666-76.771-19.644C83.492,34.274,23.139,99.196,25.955,176.463c0.413,11.304,2.17,22.239,5.087,32.673
		c6.303,12.01,14.397,22.938,23.934,32.42c21.892,14.189,47.99,22.44,76.023,22.44C208.316,263.996,270.996,201.316,270.996,123.998
		z M197.497,99.998c8.836,0,16,7.164,16,16s-7.164,16-16,16s-16-7.164-16-16S188.661,99.998,197.497,99.998z M99.583,104.997
		c0,0,0.001,0,0.002,0c10.993,0,20.99,5.239,26.74,14.36l-13.495,8.429c-2.803-4.445-8.166-7.153-13.166-7.153v-0.025
		c-6,0-10.446,2.642-13.25,7.088l-13.553-8.331C78.611,110.242,88.59,104.997,99.583,104.997z M60.513,198.309
		c-2.286,0-4.589-0.253-6.873-0.771l3.537-15.604c5.127,1.16,10.493-0.452,14.359-4.317c3.866-3.866,5.48-9.235,4.319-14.363
		l15.604-3.535c1.906,8.412,0.22,17.078-4.506,24.19c16.064,21.558,42.947,33.341,69.854,30.23
		c22.261-2.567,42.849-15.393,55.073-34.308l13.438,8.684c-14.791,22.889-39.718,38.409-66.677,41.518
		c-3.46,0.399-6.919,0.595-10.362,0.595c-28.447,0-55.795-13.375-73.224-35.942C70.556,197.059,65.578,198.309,60.513,198.309z"/>
	<path style="fill:#FFB100;" d="M267.089,91.098c2.544,10.553,3.907,21.566,3.907,32.9c0,77.318-62.68,139.998-139.998,139.998
		c-28.032,0-54.131-8.251-76.023-22.44c23.88,23.744,56.766,38.44,93.023,38.44c72.784,0,131.998-59.214,131.998-131.998
		C279.996,127.636,275.358,108.337,267.089,91.098z"/>
	<path style="fill:#FFE454;" d="M160.76,31.457c28.006-1.021,54.381,6.268,76.771,19.644C213.985,29.328,182.521,16,147.998,16
		C75.214,16,16,75.214,16,147.998c0,22.049,5.442,42.849,15.042,61.138c-2.917-10.434-4.674-21.369-5.087-32.673
		C23.139,99.196,83.492,34.274,160.76,31.457z"/>
	<path d="M147.998,0C66.392,0,0,66.392,0,147.998s66.392,147.998,147.998,147.998s147.998-66.392,147.998-147.998
		S229.604,0,147.998,0z M147.998,279.996c-36.257,0-69.143-14.696-93.023-38.44c-9.536-9.482-17.631-20.41-23.934-32.42
		C21.442,190.847,16,170.047,16,147.998C16,75.214,75.214,16,147.998,16c34.523,0,65.987,13.328,89.533,35.102
		c12.208,11.288,22.289,24.844,29.558,39.996c8.27,17.239,12.907,36.538,12.907,56.9
		C279.996,220.782,220.782,279.996,147.998,279.996z"/>
	<circle cx="197.497" cy="115.998" r="16"/>
	<path d="M99.583,120.581L99.583,120.581c5.468,0,10.404,2.655,13.207,7.101l13.535-8.325c-5.75-9.121-15.747-14.36-26.74-14.36
		c-0.001,0-0.001,0-0.001,0c-10.994,0-20.993,5.238-26.744,14.36l13.533,8.429C89.178,123.341,94.116,120.581,99.583,120.581z"/>
	<path d="M148.278,230.628c3.443,0,6.902-0.195,10.362-0.595c26.959-3.109,51.886-18.63,66.677-41.518l-13.438-8.684
		c-12.225,18.915-32.813,31.74-55.073,34.308c-26.906,3.11-53.789-8.673-69.854-30.23c4.725-7.112,6.412-15.778,4.506-24.19
		l-15.604,3.535c1.161,5.128-0.453,10.497-4.319,14.363c-3.866,3.865-9.233,5.478-14.359,4.317l-3.537,15.604
		c2.284,0.519,4.587,0.771,6.873,0.771c5.066,0,10.043-1.25,14.542-3.623C92.483,217.253,119.831,230.628,148.278,230.628z"/>
</g>
</svg>